<svg xmlns="http://www.w3.org/2000/svg" width="980" height="480" viewBox="0 0 980 480">
<rect width="100%" height="100%" fill="#ffffff"/>
<text x="20" y="32" font-family="Arial, sans-serif" font-size="20" font-weight="700" fill="#111">RQ2: Top association strengths with perceived grad-degree impact</text>
<text x="20" y="54" font-family="Arial, sans-serif" font-size="13" fill="#444">Metric = |r| (ordinal/binary) or eta (nominal), larger bars indicate stronger association.</text>
<line x1="350" y1="62" x2="350" y2="460" stroke="#e5e7eb" stroke-width="1"/>
<text x="350" y="56" text-anchor="middle" font-family="Arial, sans-serif" font-size="11" fill="#666">0.0</text>
<line x1="456" y1="62" x2="456" y2="460" stroke="#e5e7eb" stroke-width="1"/>
<text x="456" y="56" text-anchor="middle" font-family="Arial, sans-serif" font-size="11" fill="#666">0.1</text>
<line x1="562" y1="62" x2="562" y2="460" stroke="#e5e7eb" stroke-width="1"/>
<text x="562" y="56" text-anchor="middle" font-family="Arial, sans-serif" font-size="11" fill="#666">0.2</text>
<line x1="668" y1="62" x2="668" y2="460" stroke="#e5e7eb" stroke-width="1"/>
<text x="668" y="56" text-anchor="middle" font-family="Arial, sans-serif" font-size="11" fill="#666">0.3</text>
<line x1="774" y1="62" x2="774" y2="460" stroke="#e5e7eb" stroke-width="1"/>
<text x="774" y="56" text-anchor="middle" font-family="Arial, sans-serif" font-size="11" fill="#666">0.4</text>
<line x1="880" y1="62" x2="880" y2="460" stroke="#e5e7eb" stroke-width="1"/>
<text x="880" y="56" text-anchor="middle" font-family="Arial, sans-serif" font-size="11" fill="#666">0.5</text>
<text x="20" y="92" font-family="Arial, sans-serif" font-size="12" fill="#111">Aware of alternative pathway before survey</text>
<rect x="350" y="78" width="530" height="18" fill="#f3f4f6" rx="3"/>
<rect x="350" y="78" width="467.4" height="18" fill="#2563eb" rx="3"/>
<text x="888" y="92" font-family="Arial, sans-serif" font-size="12" fill="#111">0.441</text>
<text x="20" y="128" font-family="Arial, sans-serif" font-size="12" fill="#111">School state</text>
<rect x="350" y="114" width="530" height="18" fill="#f3f4f6" rx="3"/>
<rect x="350" y="114" width="326.9" height="18" fill="#2563eb" rx="3"/>
<text x="888" y="128" font-family="Arial, sans-serif" font-size="12" fill="#111">0.308</text>
<text x="20" y="164" font-family="Arial, sans-serif" font-size="12" fill="#111">Belief grad degree increases lifetime earnings (undergrad branch)</text>
<rect x="350" y="150" width="530" height="18" fill="#f3f4f6" rx="3"/>
<rect x="350" y="150" width="256.2" height="18" fill="#2563eb" rx="3"/>
<text x="888" y="164" font-family="Arial, sans-serif" font-size="12" fill="#111">0.242</text>
<text x="20" y="200" font-family="Arial, sans-serif" font-size="12" fill="#111">Belief grad degree increases lifetime earnings (combined branches)</text>
<rect x="350" y="186" width="530" height="18" fill="#f3f4f6" rx="3"/>
<rect x="350" y="186" width="256.2" height="18" fill="#2563eb" rx="3"/>
<text x="888" y="200" font-family="Arial, sans-serif" font-size="12" fill="#111">0.242</text>
<text x="20" y="236" font-family="Arial, sans-serif" font-size="12" fill="#111">Work at CPA firm</text>
<rect x="350" y="222" width="530" height="18" fill="#f3f4f6" rx="3"/>
<rect x="350" y="222" width="233.1" height="18" fill="#2563eb" rx="3"/>
<text x="888" y="236" font-family="Arial, sans-serif" font-size="12" fill="#111">0.220</text>
<text x="20" y="272" font-family="Arial, sans-serif" font-size="12" fill="#111">Likelihood of pursuing CPA</text>
<rect x="350" y="258" width="530" height="18" fill="#f3f4f6" rx="3"/>
<rect x="350" y="258" width="206.6" height="18" fill="#2563eb" rx="3"/>
<text x="888" y="272" font-family="Arial, sans-serif" font-size="12" fill="#111">0.195</text>
<text x="20" y="308" font-family="Arial, sans-serif" font-size="12" fill="#111">Importance: CPA exam preparation</text>
<rect x="350" y="294" width="530" height="18" fill="#f3f4f6" rx="3"/>
<rect x="350" y="294" width="196.6" height="18" fill="#2563eb" rx="3"/>
<text x="888" y="308" font-family="Arial, sans-serif" font-size="12" fill="#111">0.185</text>
<text x="20" y="344" font-family="Arial, sans-serif" font-size="12" fill="#111">Undergraduate major</text>
<rect x="350" y="330" width="530" height="18" fill="#f3f4f6" rx="3"/>
<rect x="350" y="330" width="178.2" height="18" fill="#2563eb" rx="3"/>
<text x="888" y="344" font-family="Arial, sans-serif" font-size="12" fill="#111">0.168</text>
<text x="20" y="380" font-family="Arial, sans-serif" font-size="12" fill="#111">Full-time (vs part-time) student</text>
<rect x="350" y="366" width="530" height="18" fill="#f3f4f6" rx="3"/>
<rect x="350" y="366" width="177.8" height="18" fill="#2563eb" rx="3"/>
<text x="888" y="380" font-family="Arial, sans-serif" font-size="12" fill="#111">0.168</text>
<text x="20" y="416" font-family="Arial, sans-serif" font-size="12" fill="#111">Importance: soft-skill development</text>
<rect x="350" y="402" width="530" height="18" fill="#f3f4f6" rx="3"/>
<rect x="350" y="402" width="176.7" height="18" fill="#2563eb" rx="3"/>
<text x="888" y="416" font-family="Arial, sans-serif" font-size="12" fill="#111">0.167</text>
</svg>